IKResults-ET5
version=1
nRows=9
nColumns=24
inDegrees=yes

Units are S.I. units (second, meters, Newtons, ...)
If the header above contains a line with 'inDegrees', this indicates whether rotational values are in degrees (yes) or radians (no).

endheader
time	pelvis_tilt	pelvis_list	pelvis_rotation	pelvis_tx	pelvis_ty	pelvis_tz	hip_flexion_r	hip_adduction_r	hip_rotation_r	knee_angle_r	ankle_angle_r	subtalar_angle_r	mtp_angle_r	hip_flexion_l	hip_adduction_l	hip_rotation_l	knee_angle_l	ankle_angle_l	subtalar_angle_l	mtp_angle_l	lumbar_extension	lumbar_bending	lumbar_rotation
      3.78000000	      1.48382749	      1.82809156	    177.43617144	      2.59427486	      0.99636982	     -0.21938549	    175.05155898	   -185.61645171	   -176.81986063	    -14.71747382	     19.24650845	     13.18519770	      0.00000000	     32.84591248	     -3.96212345	     -3.51195058	    -21.75634079	     15.06454559	      2.65529705	      0.00000000	    -17.94189278	     -0.27270951	     12.52170228
      3.79000000	      1.64804091	      1.88343500	    176.93054644	      2.58013072	      0.99395782	     -0.21908828	    174.44954577	   -185.56212141	   -176.53213469	    -14.99950162	     19.72274663	     13.24558562	      0.00000000	     32.99431503	     -3.97103440	     -3.03853166	    -18.69753619	     15.30386718	      3.06953426	      0.00000000	    -17.72591195	     -0.38657316	     12.72115862
      3.80000000	      1.82541691	      1.93169969	    176.44208746	      2.56587936	      0.99143079	     -0.21870555	    173.88484232	   -185.50351635	   -176.20770200	    -15.32989204	     20.13759331	     13.26684758	      0.00000000	     33.14483197	     -3.98109439	     -2.32471656	    -15.86610049	     15.54848654	      3.51957059	      0.00000000	    -17.48051005	     -0.44272800	     12.99042977
      3.81000000	      1.99167988	      1.97446488	    175.98388646	      2.55138952	      0.98883836	     -0.21832245	    173.30195117	   -185.43942575	   -175.93763364	    -15.65205103	     20.41592388	     13.20706720	      0.00000000	     33.26768105	     -3.98733415	     -1.43656148	    -13.30486964	     15.73937530	      3.81308302	      0.00000000	    -17.23677816	     -0.49168115	     13.61619958
      3.82000000	      2.11899943	      2.00837867	    175.52543089	      2.53694146	      0.98619458	     -0.21785432	    172.74232633	   -185.35716084	   -175.73174421	    -16.09565359	     20.75776675	     13.19979440	      0.00000000	     33.38480866	     -3.98087403	     -0.79247450	    -11.17411227	     16.07570258	      3.57678551	      0.00000000	    -17.03163739	     -0.61882471	     13.74095258
      3.83000000	      2.22073064	      1.99770484	    175.06526001	      2.52223963	      0.98346099	     -0.21728086	    172.16792980	   -185.20696290	   -175.44311351	    -16.61882181	     21.09724428	     13.15935427	      0.00000000	     33.53030858	     -3.96202157	     -0.59839835	     -9.70315252	     16.34439862	      2.74457240	      0.00000000	    -16.82593039	     -0.73385710	     14.16362273
      3.84000000	      2.28395003	      1.96900558	    174.62943427	      2.50733824	      0.98065674	     -0.21670873	    171.60409356	   -185.01011296	   -175.44857717	    -17.16768700	     21.41484092	     13.37297509	      0.00000000	     33.72261886	     -3.92840190	     -0.74493208	     -8.93539552	     16.56575543	      1.85282799	      0.00000000	    -16.63490618	     -0.91609694	     14.51625601
      3.85000000	      2.34041292	      1.91298197	    174.22551494	      2.49214653	      0.97775344	     -0.21610688	    171.05329233	   -184.78732884	   -175.24955301	    -17.87149741	     21.81215329	     13.34474012	      0.00000000	     33.98260932	     -3.89121812	     -0.97983268	     -8.90728750	     16.67642666	      1.72219622	      0.00000000	    -16.41474943	     -1.15245492	     14.63178918
      3.86000000	      2.31208433	      1.87769745	    173.86626313	      2.47668351	      0.97475536	     -0.21554316	    170.40751497	   -184.58566668	   -174.92047479	    -18.66052921	     22.21969712	     13.28394228	      0.00000000	     34.21986656	     -3.87530116	     -1.09923577	     -9.61802913	     16.65706913	      1.93188237	      0.00000000	    -16.26493972	     -1.32481898	     15.23099292
